<svg xmlns="http://www.w3.org/2000/svg" width="128" height="128" viewBox="0 0 128 128" role="img" aria-label="创作者章节助手图标">
  <defs>
    <linearGradient id="bg" x1="18" y1="14" x2="112" y2="118" gradientUnits="userSpaceOnUse">
      <stop offset="0" stop-color="#2B2528"/>
      <stop offset="1" stop-color="#171416"/>
    </linearGradient>
    <linearGradient id="mark" x1="32" y1="28" x2="94" y2="98" gradientUnits="userSpaceOnUse">
      <stop offset="0" stop-color="#FF3B67"/>
      <stop offset="1" stop-color="#0E9F9A"/>
    </linearGradient>
    <filter id="soft" x="-20%" y="-20%" width="140%" height="140%">
      <feDropShadow dx="0" dy="8" stdDeviation="8" flood-color="#000000" flood-opacity="0.28"/>
    </filter>
  </defs>
  <rect x="8" y="8" width="112" height="112" rx="26" fill="url(#bg)"/>
  <g filter="url(#soft)">
    <path d="M37 34h54a6 6 0 0 1 6 6v48a6 6 0 0 1-6 6H37a6 6 0 0 1-6-6V40a6 6 0 0 1 6-6Z" fill="#FFF8F6"/>
    <path d="M45 49h18" stroke="#2B2528" stroke-width="6" stroke-linecap="round"/>
    <path d="M45 65h39" stroke="#2B2528" stroke-width="6" stroke-linecap="round"/>
    <path d="M45 81h27" stroke="#2B2528" stroke-width="6" stroke-linecap="round"/>
    <path d="M78 48l14 14-14 14" fill="none" stroke="url(#mark)" stroke-width="8" stroke-linecap="round" stroke-linejoin="round"/>
  </g>
  <circle cx="36" cy="34" r="7" fill="#FF3B67"/>
  <circle cx="92" cy="94" r="7" fill="#0E9F9A"/>
</svg>
